<mxfile host="65bd71144e">
    <diagram id="LuMbmf6ELqapBXDfLRMM" name="Page-1">
        <mxGraphModel dx="718" dy="302" grid="0" gridSize="10" guides="1" tooltips="1" connect="1" arrows="1" fold="1" page="1" pageScale="1" pageWidth="850" pageHeight="1100" math="0" shadow="0">
            <root>
                <mxCell id="0"/>
                <mxCell id="1" parent="0"/>
                <mxCell id="16" style="edgeStyle=none;html=1;" edge="1" parent="1" source="3">
                    <mxGeometry relative="1" as="geometry">
                        <mxPoint x="399.9999999999998" y="240" as="targetPoint"/>
                    </mxGeometry>
                </mxCell>
                <mxCell id="3" value="&lt;font style=&quot;font-size: 26px;&quot; face=&quot;Courier New&quot;&gt;&lt;b style=&quot;&quot;&gt;Fact&lt;/b&gt;&lt;/font&gt;" style="whiteSpace=wrap;html=1;" vertex="1" parent="1">
                    <mxGeometry x="320" y="360" width="160" height="80" as="geometry"/>
                </mxCell>
                <mxCell id="4" value="" style="edgeStyle=none;orthogonalLoop=1;jettySize=auto;html=1;" edge="1" parent="1">
                    <mxGeometry width="100" relative="1" as="geometry">
                        <mxPoint x="240" y="400" as="sourcePoint"/>
                        <mxPoint x="320" y="399.5" as="targetPoint"/>
                        <Array as="points"/>
                    </mxGeometry>
                </mxCell>
                <mxCell id="7" value="n" style="edgeLabel;html=1;align=center;verticalAlign=middle;resizable=0;points=[];fontSize=21;fontFamily=Courier New;fontStyle=1" vertex="1" connectable="0" parent="4">
                    <mxGeometry x="-0.2698" y="-2" relative="1" as="geometry">
                        <mxPoint x="11" y="-22" as="offset"/>
                    </mxGeometry>
                </mxCell>
                <mxCell id="5" value="" style="edgeStyle=none;orthogonalLoop=1;jettySize=auto;html=1;" edge="1" parent="1">
                    <mxGeometry width="100" relative="1" as="geometry">
                        <mxPoint x="480" y="400" as="sourcePoint"/>
                        <mxPoint x="560" y="399.5" as="targetPoint"/>
                        <Array as="points"/>
                    </mxGeometry>
                </mxCell>
                <mxCell id="9" value="n!" style="edgeLabel;html=1;align=center;verticalAlign=middle;resizable=0;points=[];fontSize=21;fontFamily=Courier New;fontStyle=1" vertex="1" connectable="0" parent="1">
                    <mxGeometry x="290.01193336621" y="399.99871447857964" as="geometry">
                        <mxPoint x="228" y="-17" as="offset"/>
                    </mxGeometry>
                </mxCell>
                <mxCell id="11" value="&lt;font style=&quot;font-size: 26px;&quot; face=&quot;Courier New&quot;&gt;&lt;b style=&quot;&quot;&gt;Eval&lt;/b&gt;&lt;/font&gt;" style="whiteSpace=wrap;html=1;" vertex="1" parent="1">
                    <mxGeometry x="320" y="160" width="160" height="80" as="geometry"/>
                </mxCell>
                <mxCell id="12" value="" style="edgeStyle=none;orthogonalLoop=1;jettySize=auto;html=1;" edge="1" parent="1">
                    <mxGeometry width="100" relative="1" as="geometry">
                        <mxPoint x="240" y="200" as="sourcePoint"/>
                        <mxPoint x="320" y="199.5" as="targetPoint"/>
                        <Array as="points"/>
                    </mxGeometry>
                </mxCell>
                <mxCell id="13" value="7" style="edgeLabel;html=1;align=center;verticalAlign=middle;resizable=0;points=[];fontSize=21;fontFamily=Courier New;fontStyle=1" vertex="1" connectable="0" parent="12">
                    <mxGeometry x="-0.2698" y="-2" relative="1" as="geometry">
                        <mxPoint x="11" y="-22" as="offset"/>
                    </mxGeometry>
                </mxCell>
                <mxCell id="14" value="" style="edgeStyle=none;orthogonalLoop=1;jettySize=auto;html=1;" edge="1" parent="1">
                    <mxGeometry width="100" relative="1" as="geometry">
                        <mxPoint x="480" y="200" as="sourcePoint"/>
                        <mxPoint x="560" y="199.5" as="targetPoint"/>
                        <Array as="points"/>
                    </mxGeometry>
                </mxCell>
                <mxCell id="15" value="5040" style="edgeLabel;html=1;align=center;verticalAlign=middle;resizable=0;points=[];fontSize=21;fontFamily=Courier New;fontStyle=1" vertex="1" connectable="0" parent="1">
                    <mxGeometry x="290.01193336621" y="199.99871447857964" as="geometry">
                        <mxPoint x="228" y="-17" as="offset"/>
                    </mxGeometry>
                </mxCell>
            </root>
        </mxGraphModel>
    </diagram>
</mxfile>